<!--?xml version="1.0" encoding="utf-8"?-->
<!-- Generator: Adobe Illustrator 24.0.1, SVG Export Plug-In . SVG Version: 6.00 Build 0)  -->
<svg version="1.1" id="Layer_1" xmlns="http://www.w3.org/2000/svg" xmlns:xlink="http://www.w3.org/1999/xlink" x="0px" y="0px" viewBox="0 0 300 100" style="enable-background:new 0 0 300 100;" xml:space="preserve" width="300" height="100">
<style type="text/css">
	.st0{clip-path:url(#SVGID_2_);}
	.st1{fill:none;stroke:#fff;stroke-width:22;stroke-miterlimit:10;}
	.st2{clip-path:url(#SVGID_4_);fill:none;stroke:#fff;stroke-width:22;stroke-miterlimit:10;}
	.st3{clip-path:url(#SVGID_6_);fill:none;stroke:#fff;stroke-width:23;stroke-miterlimit:10;}
	.st4{clip-path:url(#SVGID_8_);fill:none;stroke:#fff;stroke-width:23;stroke-miterlimit:10;}
	.st5{clip-path:url(#SVGID_10_);fill:none;stroke:#fff;stroke-width:23;stroke-miterlimit:10;}
	.st6{clip-path:url(#SVGID_12_);fill:none;stroke:#fff;stroke-width:23;stroke-miterlimit:10;}
	.st7{clip-path:url(#SVGID_14_);fill:none;stroke:#fff;stroke-width:23;stroke-miterlimit:10;}
	.st8{clip-path:url(#SVGID_16_);fill:none;stroke:#fff;stroke-width:23;stroke-miterlimit:10;}

</style>
<g>
	<defs>
		<path id="SVGID_1_" d="M40.56,37.49c0.19,0,0.35,0.11,0.49,0.33c0.14,0.22,0.2,0.43,0.2,0.61c0,0.32-0.12,0.7-0.37,1.13
			c-0.25,0.43-0.58,0.87-1.01,1.31c-0.43,0.44-0.93,0.87-1.51,1.29c-0.58,0.42-1.19,0.77-1.84,1.06c-0.94,0.41-1.98,0.8-3.12,1.17
			c-1.14,0.37-2.35,0.71-3.62,0.99c-1.27,0.29-2.59,0.54-3.97,0.75c-1.37,0.21-2.75,0.37-4.13,0.47c-0.09,0-0.18,0.16-0.27,0.48
			c-0.09,0.32-0.19,0.73-0.29,1.22c-0.1,0.49-0.2,1.04-0.29,1.64c-0.09,0.6-0.18,1.19-0.27,1.76c-0.09,0.57-0.16,1.08-0.23,1.54
			c-0.07,0.46-0.12,0.79-0.15,0.99C20,55.18,19.87,56,19.76,56.7c-0.11,0.71-0.2,1.37-0.28,1.99c-0.08,0.62-0.14,1.22-0.19,1.8
			c-0.05,0.58-0.09,1.19-0.1,1.84c-0.02,0.36-0.02,0.68-0.01,0.96c0.01,0.28,0.01,0.56,0.01,0.83c0,0.27,0,0.55-0.01,0.83
			c-0.01,0.28-0.03,0.6-0.06,0.96c-0.02,0.1-0.12,0.25-0.32,0.43c-0.2,0.19-0.42,0.37-0.68,0.55s-0.51,0.34-0.76,0.47
			c-0.25,0.14-0.42,0.2-0.52,0.2c-0.43,0-0.78-0.14-1.05-0.42c-0.27-0.28-0.49-0.6-0.64-0.96c-0.15-0.36-0.26-0.71-0.31-1.05
			s-0.08-0.57-0.08-0.69c0-1.38,0.09-2.7,0.28-3.98c0.19-1.27,0.41-2.57,0.68-3.89c0.26-1.32,0.54-2.69,0.82-4.11
			c0.28-1.42,0.52-2.97,0.73-4.65c-0.14-0.31-0.35-0.5-0.63-0.59c-0.28-0.08-0.57-0.13-0.86-0.13c-0.1,0-0.2,0-0.29,0.01
			c-0.09,0.01-0.18,0.01-0.27,0.01c-0.09,0-0.31,0.01-0.67,0.04c-0.36,0.03-0.79,0.05-1.28,0.08c-0.5,0.03-1.02,0.06-1.57,0.1
			c-0.55,0.04-1.08,0.08-1.56,0.1c-0.49,0.03-0.91,0.05-1.27,0.08c-0.36,0.03-0.58,0.04-0.67,0.04c-0.27,0-0.54-0.08-0.81-0.25
			c-0.26-0.17-0.5-0.37-0.7-0.6c-0.2-0.23-0.37-0.47-0.5-0.71C6.06,45.74,6,45.54,6,45.37c0-0.34,0.06-0.63,0.19-0.88
			c0.13-0.25,0.29-0.45,0.49-0.6c0.2-0.15,0.42-0.27,0.67-0.34c0.25-0.08,0.49-0.11,0.73-0.11c0.26,0,0.63-0.01,1.13-0.03
			c0.5-0.02,1.04-0.04,1.64-0.06c0.6-0.03,1.22-0.06,1.87-0.09c0.65-0.03,1.25-0.08,1.82-0.13c0.56-0.05,1.06-0.1,1.48-0.15
			c0.43-0.05,0.73-0.1,0.9-0.15c0.36-0.12,0.73-0.49,1.13-1.12c0.39-0.63,0.74-1.59,1.05-2.88c0.07-0.29,0.15-0.7,0.26-1.22
			c0.1-0.53,0.21-1.11,0.33-1.76c0.12-0.65,0.24-1.31,0.36-2c0.12-0.69,0.23-1.34,0.33-1.96c0.1-0.62,0.18-1.17,0.24-1.66
			c0.06-0.48,0.1-0.85,0.12-1.08c0-0.22,0.09-0.47,0.27-0.74c0.18-0.27,0.39-0.52,0.63-0.75c0.24-0.23,0.48-0.42,0.72-0.57
			c0.24-0.15,0.42-0.23,0.54-0.23c0.26,0,0.5,0.09,0.74,0.26c0.24,0.17,0.45,0.37,0.63,0.6c0.18,0.23,0.32,0.46,0.42,0.7
			c0.1,0.24,0.15,0.42,0.15,0.54c0,0.09-0.02,0.28-0.06,0.57c-0.04,0.3-0.1,0.66-0.17,1.08c-0.07,0.43-0.15,0.88-0.24,1.38
			c-0.09,0.49-0.18,0.96-0.26,1.4c-0.08,0.44-0.15,0.84-0.22,1.19c-0.07,0.35-0.12,0.59-0.15,0.73c-0.24,1.04-0.44,1.9-0.6,2.58
			c-0.16,0.68-0.29,1.25-0.38,1.71c-0.09,0.46-0.16,0.83-0.2,1.11c-0.04,0.28-0.06,0.53-0.06,0.75c0,0.39,0.05,0.65,0.15,0.79
			c0.1,0.14,0.27,0.21,0.51,0.23c0.07,0,0.34-0.03,0.82-0.08c0.48-0.05,1.09-0.13,1.83-0.23c0.74-0.1,1.57-0.23,2.47-0.38
			c0.9-0.15,1.82-0.33,2.74-0.52c0.92-0.2,1.81-0.41,2.66-0.65c0.85-0.24,1.6-0.5,2.23-0.79c0.61-0.29,1.18-0.57,1.7-0.84
			c0.52-0.27,0.98-0.52,1.38-0.74c0.4-0.22,0.73-0.4,1-0.52C40.23,37.55,40.43,37.49,40.56,37.49z" class="svg-elem-1"></path>
	</defs>
	<clipPath id="SVGID_2_">
		<use xlink:href="#SVGID_1_" style="overflow:visible;"></use>
	</clipPath>
	<g class="st0">
		<polyline class="st1 svg-elem-2" points="23.56,26.71 20.27,46.83 16.57,69.51 		"></polyline>
		<path class="st1 svg-elem-3" d="M5.96,46.92c0,0,22.51-0.3,35.19-8.03"></path>
	</g>
</g>
<g>
	<defs>
		<path id="SVGID_3_" d="M74.61,54.06c0,0.19-0.01,0.41-0.04,0.66c-0.03,0.25-0.08,0.52-0.15,0.79c-0.08,0.27-0.18,0.54-0.32,0.8
			c-0.14,0.26-0.31,0.5-0.51,0.7c-1.02,0.97-2.09,1.85-3.19,2.64c-1.1,0.79-2.2,1.46-3.29,2.01c-1.09,0.55-2.16,0.98-3.2,1.29
			c-1.04,0.31-2.01,0.46-2.92,0.46c-1.25,0-2.28-0.23-3.11-0.7c-0.83-0.47-1.49-1.08-1.98-1.84c-0.5-0.76-0.84-1.62-1.05-2.6
			c-0.2-0.98-0.31-1.98-0.31-3c0-0.34,0.01-0.74,0.04-1.19c0.03-0.45,0.06-0.92,0.09-1.4c0.03-0.48,0.06-0.96,0.09-1.42
			c0.03-0.46,0.04-0.88,0.04-1.25c0-0.53-0.04-0.98-0.12-1.36c-0.08-0.38-0.22-0.65-0.42-0.8c-0.36,0.19-0.8,0.55-1.33,1.1
			c-0.53,0.54-1.11,1.23-1.75,2.07c-0.64,0.83-1.32,1.79-2.05,2.88c-0.73,1.09-1.46,2.26-2.19,3.52c-0.46,0.78-0.94,1.6-1.43,2.45
			c-0.5,0.85-0.99,1.68-1.47,2.49c-0.49,0.81-0.97,1.58-1.45,2.31c-0.48,0.73-0.93,1.37-1.36,1.93c-0.43,0.55-0.82,0.99-1.18,1.31
			s-0.66,0.48-0.9,0.48c-0.31,0-0.56-0.03-0.76-0.08c-0.2-0.05-0.37-0.1-0.51-0.15c-0.15-0.05-0.27-0.1-0.38-0.15
			c-0.11-0.05-0.23-0.08-0.35-0.08c-0.14-0.48-0.24-1.05-0.31-1.71c-0.07-0.66-0.12-1.33-0.15-2c-0.03-0.67-0.06-1.29-0.06-1.86
			c-0.01-0.57-0.01-1-0.01-1.29c0-2.28,0.17-4.67,0.5-7.19c0.33-2.52,0.73-5.16,1.19-7.92c0.46-2.76,0.94-5.65,1.43-8.67
			c0.49-3.02,0.9-6.18,1.23-9.47c0.1-0.48,0.26-0.87,0.46-1.17c0.2-0.31,0.44-0.54,0.69-0.71c0.26-0.17,0.51-0.28,0.77-0.34
			c0.26-0.06,0.49-0.09,0.69-0.09c0.51,0,0.92,0.26,1.23,0.79c0.31,0.53,0.46,1.23,0.46,2.12c0,0.24-0.03,0.6-0.09,1.1
			c-0.06,0.49-0.15,1.05-0.26,1.67c-0.11,0.62-0.23,1.28-0.36,1.99c-0.13,0.71-0.26,1.41-0.41,2.1c-0.15,0.7-0.28,1.36-0.41,2
			c-0.13,0.64-0.24,1.19-0.35,1.64c-0.41,1.84-0.78,3.7-1.11,5.6c-0.33,1.9-0.62,3.67-0.87,5.33c-0.25,1.66-0.44,3.14-0.58,4.44
			c-0.14,1.3-0.2,2.27-0.2,2.92c0,0.17,0,0.41,0,0.71c0,0.31,0,0.62,0.01,0.94c0.01,0.32,0.02,0.62,0.04,0.91
			c0.02,0.28,0.04,0.47,0.08,0.57c0.63-0.48,1.24-1.08,1.83-1.81c0.59-0.73,1.19-1.57,1.82-2.51c0.62-0.94,1.29-1.97,2.01-3.09
			c0.72-1.11,1.53-2.29,2.43-3.53c0.48-0.68,1.05-1.41,1.7-2.19c0.66-0.78,1.36-1.51,2.11-2.18c0.75-0.67,1.54-1.23,2.37-1.67
			c0.83-0.44,1.65-0.66,2.47-0.66c0.38,0,0.68,0.31,0.91,0.94c0.23,0.63,0.35,1.45,0.35,2.45c0,0.27-0.04,0.68-0.12,1.24
			c-0.08,0.55-0.16,1.16-0.24,1.84c-0.09,0.67-0.17,1.36-0.24,2.08c-0.08,0.71-0.12,1.38-0.12,1.99c0,0.49,0.03,1.08,0.09,1.77
			c0.06,0.69,0.21,1.35,0.46,1.98c0.25,0.63,0.61,1.16,1.1,1.61c0.49,0.44,1.16,0.66,2.04,0.66c1.43,0,3.06-0.34,4.86-1.02
			c1.81-0.68,3.72-1.78,5.73-3.29c0.2-0.15,0.4-0.31,0.58-0.47c0.18-0.16,0.34-0.31,0.49-0.45c0.14-0.14,0.28-0.25,0.4-0.34
			c0.12-0.09,0.21-0.14,0.28-0.14c0.02,0,0.06,0.03,0.12,0.08c0.06,0.05,0.12,0.11,0.18,0.17c0.06,0.06,0.12,0.12,0.17,0.18
			C74.59,54.01,74.61,54.04,74.61,54.06z" class="svg-elem-4"></path>
	</defs>
	<clipPath id="SVGID_4_">
		<use xlink:href="#SVGID_3_" style="overflow:visible;"></use>
	</clipPath>
	<path class="st2 svg-elem-5" d="M42.97,23.44l-4.4,41.91v4.16l11.9-20.21c0,0,8.02-10.11,6.99-2.08c-1.04,8.03-2.07,14.57,3.11,13.97
		c5.18-0.59,12.94-5.65,12.94-5.65"></path>
</g>
<g>
	<defs>
		<path id="SVGID_5_" d="M97.02,54.16c0,0.6-0.22,1.24-0.67,1.94c-0.44,0.7-1.08,1.48-1.89,2.35c-0.94,0.99-1.97,1.9-3.1,2.74
			c-1.13,0.84-2.29,1.57-3.48,2.19c-1.19,0.62-2.41,1.11-3.64,1.47c-1.23,0.36-2.42,0.54-3.56,0.54c-2.68,0-4.75-0.86-6.22-2.58
			c-1.47-1.72-2.2-4.23-2.2-7.55c0-1.05,0.09-2.13,0.28-3.23c0.19-1.1,0.46-2.18,0.83-3.25c0.37-1.07,0.83-2.11,1.38-3.11
			c0.55-1,1.2-1.94,1.93-2.81c0.46-0.53,0.97-1.06,1.54-1.61c0.56-0.54,1.19-1.03,1.87-1.47c0.68-0.43,1.43-0.79,2.24-1.06
			c0.81-0.27,1.69-0.41,2.65-0.41c0.68,0,1.3,0.13,1.84,0.4c0.55,0.26,1.01,0.6,1.38,1.01c0.38,0.41,0.66,0.87,0.86,1.38
			c0.2,0.51,0.29,1.01,0.29,1.5c0,1.04-0.28,2.09-0.84,3.15c-0.56,1.06-1.36,2.13-2.38,3.21c-1.02,1.08-2.25,2.16-3.69,3.24
			c-1.43,1.08-3.03,2.15-4.79,3.23c-0.24,0.14-0.48,0.28-0.72,0.45c-0.24,0.16-0.36,0.36-0.36,0.6c0,0.51,0.07,1.05,0.2,1.61
			c0.14,0.56,0.38,1.08,0.74,1.54c0.36,0.47,0.84,0.85,1.45,1.16c0.61,0.31,1.38,0.46,2.32,0.46c1.19,0,2.41-0.19,3.65-0.57
			c1.24-0.38,2.45-0.91,3.64-1.59c1.19-0.68,2.34-1.49,3.46-2.42c1.12-0.93,2.16-1.95,3.14-3.03c0.55-0.59,0.98-0.89,1.31-0.89
			c0.19,0,0.32,0.11,0.41,0.33C96.97,53.29,97.02,53.65,97.02,54.16z M85.14,43.27c0-0.19-0.05-0.36-0.15-0.51
			c-0.1-0.15-0.23-0.28-0.37-0.38c-0.15-0.1-0.3-0.18-0.46-0.24c-0.16-0.06-0.3-0.09-0.42-0.09c-0.75,0-1.52,0.27-2.3,0.8
			c-0.79,0.54-1.52,1.28-2.2,2.23c-0.68,0.95-1.28,2.08-1.79,3.39c-0.51,1.31-0.86,2.73-1.05,4.26c0.24-0.15,0.55-0.37,0.95-0.66
			c0.39-0.29,0.81-0.61,1.27-0.96c0.45-0.35,0.9-0.7,1.36-1.06c0.45-0.36,0.86-0.69,1.22-0.99c0.78-0.66,1.43-1.25,1.95-1.77
			c0.51-0.52,0.92-0.99,1.22-1.43c0.3-0.43,0.51-0.86,0.63-1.27C85.08,44.17,85.14,43.73,85.14,43.27z" class="svg-elem-6"></path>
	</defs>
	<clipPath id="SVGID_6_">
		<use xlink:href="#SVGID_5_" style="overflow:visible;"></use>
	</clipPath>
	<path class="st3 svg-elem-7" d="M72.21,55.54c0,0,8.54-0.59,15.27-11.59c2.59-5.05-4.66-5.65-7.76-1.78c0,0-9.83,8.03-3.36,20.81
		c5.43,2.38,10.09,2.97,20.7-9.81"></path>
</g>
<g>
	<defs>
		<path id="SVGID_7_" d="M153.96,53.19c0,0.39-0.05,0.95-0.15,1.68c-0.1,0.75-0.18,1.18-0.23,1.3c-0.22,0.88-0.62,1.85-1.2,2.89
			c-0.58,1.05-1.25,2.05-2.02,3.02c-0.73,0.94-1.48,1.77-2.23,2.51c-0.75,0.74-1.39,1.29-1.92,1.64c-0.55,0.39-1.23,0.78-2.06,1.16
			c-0.83,0.38-1.81,0.74-2.93,1.08c-2.24,0.7-4.19,1.05-5.86,1.05c-1.43,0-2.75-0.25-3.94-0.76c-1.19-0.48-1.79-1.4-1.79-2.78
			c0-0.83,0.22-1.44,0.65-1.82c0.44-0.38,1.22-0.57,2.34-0.57c1.25,0,2.33,0.21,3.25,0.64c0.94,0.41,1.74,0.61,2.41,0.61
			c0.38,0,1.13-0.13,2.25-0.38c1.11-0.27,1.99-0.63,2.64-1.07c0.72-0.48,1.46-1.09,2.23-1.85c0.77-0.76,1.47-1.57,2.11-2.45
			c0.64-0.88,1.16-1.76,1.55-2.66c0.39-0.9,0.58-1.75,0.56-2.55c0-1.16-0.46-2.18-1.38-3.09c-0.92-0.92-2.01-1.63-3.25-2.14
			c-1.26-0.51-2.34-0.77-3.23-0.77c-1.37,0-2.41,0.1-3.12,0.31c-0.73,0.19-1.43,0.44-2.1,0.76c-0.67,0.32-1.24,0.48-1.72,0.48
			c-0.55,0-1.11-0.18-1.69-0.54c-0.58-0.36-0.87-0.81-0.87-1.35c0-0.48,0.07-0.89,0.22-1.24c0.14-0.35,0.34-0.65,0.58-0.89
			c0.24-0.25,0.51-0.44,0.82-0.59c0.31-0.14,0.63-0.25,0.97-0.32c0.34-0.08,0.71-0.16,1.1-0.22c0.39-0.06,0.81-0.11,1.25-0.14
			c0.89-0.07,1.42-0.15,1.61-0.26c1.18-0.68,2.39-1.49,3.64-2.42c0.65-0.48,1.25-0.96,1.8-1.47c0.55-0.5,1.08-1.02,1.57-1.54
			c0.99-1.04,1.48-1.89,1.48-2.55c0-0.9-0.38-1.58-1.13-2.04c-0.75-0.46-1.99-0.69-3.71-0.69c-0.56,0-1.17,0.03-1.82,0.08
			c-0.65,0.05-1.31,0.13-2,0.24c-0.68,0.11-1.37,0.25-2.06,0.41c-0.69,0.16-1.37,0.34-2.04,0.55c-0.67,0.2-1.31,0.43-1.92,0.69
			c-0.61,0.26-1.19,0.54-1.72,0.84c-0.53,0.31-1,0.63-1.41,0.98c-0.41,0.35-0.74,0.71-1,1.08c-0.14,0.2-0.23,0.55-0.29,1.03
			c-0.06,0.48-0.12,1.25-0.17,2.31c-0.02,0.53-0.03,1.1-0.05,1.72c-0.02,0.62-0.04,1.31-0.08,2.08c-0.03,0.77-0.06,1.42-0.09,1.98
			c-0.03,0.55-0.06,1.02-0.09,1.42c-0.03,0.32-0.08,0.72-0.14,1.19c-0.06,0.47-0.13,1.02-0.22,1.64c-0.17,1.22-0.3,2.29-0.4,3.19
			c-0.09,0.9-0.14,1.75-0.14,2.55c0,0.27,0.01,0.6,0.03,0.98c0.02,0.38,0.04,0.82,0.08,1.31c0.03,0.49,0.06,0.93,0.08,1.31
			c0.02,0.38,0.03,0.69,0.03,0.93c0,1.48-0.2,2.56-0.59,3.25c-0.39,0.69-1.05,1.03-1.97,1.03c-2.03,0-3.05-1.73-3.05-5.18
			c0-0.41,0.2-1.78,0.61-4.11c0.41-2.31,0.64-3.76,0.69-4.34c0.09-0.78,0.16-1.52,0.22-2.22c0.06-0.7,0.12-1.36,0.19-1.99
			c0.07-0.63,0.14-1.37,0.23-2.22c0.09-0.85,0.19-1.83,0.31-2.93c0.09-0.68,0.15-1.23,0.19-1.66c0.04-0.42,0.06-0.72,0.06-0.89
			c0-0.41-0.06-0.86-0.18-1.35c-0.07-0.27-0.12-0.51-0.14-0.7c-0.03-0.2-0.04-0.35-0.04-0.47c0-1.26,0.23-2.34,0.69-3.24
			c0.6-1.19,1.08-1.79,1.46-1.81c0.6-0.08,1.16-0.19,1.69-0.32c0.53-0.13,1.03-0.27,1.51-0.42c2.22-0.75,3.97-1.33,5.26-1.76
			c1.29-0.42,2.13-0.7,2.52-0.82c0.78-0.26,1.6-0.43,2.46-0.54c0.44-0.07,0.97-0.11,1.59-0.14c0.61-0.03,1.33-0.04,2.15-0.04h1.43
			c0.36-0.02,0.83,0.07,1.42,0.26c0.59,0.19,1.19,0.43,1.79,0.74c0.61,0.31,1.16,0.65,1.68,1.03c0.51,0.38,0.87,0.77,1.08,1.16
			c0.24,0.36,0.44,0.9,0.61,1.63c0.09,0.37,0.15,0.71,0.2,1.01c0.05,0.3,0.08,0.57,0.08,0.8c0,1.38-0.59,2.79-1.78,4.23
			c-1.19,1.45-2.91,3.09-5.18,4.92c1.26,0.26,2.48,0.67,3.65,1.24c1.17,0.57,2.2,1.24,3.1,2.01c0.9,0.77,1.61,1.62,2.15,2.52
			C153.69,51.34,153.96,52.26,153.96,53.19z" class="svg-elem-8"></path>
	</defs>
	<clipPath id="SVGID_8_">
		<use xlink:href="#SVGID_7_" style="overflow:visible;"></use>
	</clipPath>
	<path class="st4 svg-elem-9" d="M124.35,67.58l2.33-31.21c0,0,8.28-8.03,18.11-5.05s-1.81,11.3-1.81,11.3l-11.9,4.76
		c0,0,17.34-4.76,21.22,4.46c3.88,9.22-11.9,15.16-11.9,15.16l-11.64-1.49"></path>
</g>
<g>
	<defs>
		<path id="SVGID_9_" d="M184.45,46.26c0,0.1-0.01,0.25-0.03,0.45c-0.02,0.2-0.06,0.39-0.13,0.59c-0.07,0.2-0.15,0.37-0.24,0.52
			c-0.09,0.15-0.22,0.23-0.37,0.23c-0.1,0-0.27,0-0.51-0.01c-0.24-0.01-0.49-0.02-0.76-0.04c-0.26-0.02-0.52-0.03-0.76-0.04
			c-0.24-0.01-0.41-0.01-0.51-0.01c-3.26,0.2-5.97,1.39-8.14,3.57c-2.13,2.13-3.98,4.96-5.53,8.52c-0.29,0.73-0.58,1.49-0.86,2.27
			c-0.28,0.78-0.55,1.61-0.81,2.47c-0.14,0.48-0.24,0.9-0.29,1.26c-0.06,0.37-0.16,0.75-0.29,1.16c-0.03,0.14-0.18,0.27-0.44,0.4
			c-0.26,0.13-0.54,0.24-0.86,0.34c-0.32,0.1-0.62,0.19-0.91,0.25c-0.29,0.07-0.49,0.1-0.59,0.1c-1.18,0.07-1.84-1.15-2-3.65
			c-0.05-0.68-0.07-1.3-0.06-1.85c0.01-0.55,0.03-1.09,0.06-1.61s0.08-1.06,0.14-1.63c0.06-0.57,0.12-1.21,0.19-1.93
			c0.08-0.88,0.19-1.9,0.31-3.06c0.12-1.16,0.26-2.32,0.41-3.49c0.15-1.17,0.32-2.29,0.49-3.35c0.17-1.06,0.35-1.94,0.54-2.64
			c0.19-0.8,0.45-1.39,0.78-1.79c0.33-0.39,0.82-0.6,1.47-0.64c0.17,0,0.35,0.05,0.55,0.14c0.2,0.09,0.38,0.22,0.54,0.37
			c0.16,0.15,0.3,0.31,0.41,0.48c0.11,0.17,0.17,0.32,0.19,0.46c0.02,0.43,0.01,0.89-0.03,1.39c-0.03,0.5-0.09,1.02-0.18,1.56
			c-0.09,0.54-0.19,1.08-0.31,1.62c-0.12,0.54-0.24,1.06-0.36,1.56c-0.24,0.97-0.42,1.8-0.55,2.49c-0.13,0.69-0.23,1.36-0.32,2
			c-0.09,0.65-0.17,1.34-0.26,2.08c-0.09,0.74-0.2,1.65-0.33,2.74c0.29-0.65,0.54-1.2,0.76-1.66c0.21-0.46,0.4-0.86,0.58-1.21
			c0.17-0.35,0.33-0.66,0.47-0.93c0.15-0.27,0.3-0.56,0.47-0.85c0.17-0.3,0.36-0.62,0.56-0.98c0.2-0.36,0.46-0.79,0.77-1.3
			c1.19-1.97,2.47-3.58,3.84-4.83c1.37-1.25,2.68-2.15,3.94-2.69c1.43-0.68,2.61-1.05,3.53-1.1c0.44-0.02,0.97,0.01,1.59,0.08
			c0.61,0.07,1.2,0.2,1.77,0.38c0.56,0.19,1.05,0.43,1.45,0.73C184.25,45.47,184.45,45.83,184.45,46.26z" class="svg-elem-10"></path>
	</defs>
	<clipPath id="SVGID_10_">
		<use xlink:href="#SVGID_9_" style="overflow:visible;"></use>
	</clipPath>
	<path class="st5 svg-elem-11" d="M163.94,40.53l-1.55,27.65c0,0,5.95-30.32,21.99-21.4"></path>
</g>
<g>
	<defs>
		<path id="SVGID_11_" d="M222.34,46.49c0,0.58-0.17,1.19-0.5,1.85c-0.33,0.65-0.7,1.25-1.11,1.8c-1.08,1.45-2.2,2.77-3.37,3.97
			c-1.17,1.2-2.35,2.33-3.55,3.4c-1.25,1.12-2.49,2-3.73,2.63c-1.24,0.63-2.35,0.94-3.34,0.94c-0.43,0-0.85-0.1-1.27-0.31
			c-0.42-0.2-0.81-0.47-1.18-0.8c-0.37-0.33-0.69-0.72-0.97-1.16c-0.28-0.44-0.5-0.9-0.65-1.38c-0.09-0.25-0.16-0.55-0.23-0.88
			c-0.07-0.33-0.14-0.64-0.2-0.92c-0.07-0.28-0.15-0.52-0.23-0.71c-0.09-0.2-0.18-0.29-0.28-0.29c-0.07,0-0.21,0.11-0.44,0.33
			c-0.22,0.22-0.48,0.51-0.78,0.85c-0.3,0.35-0.62,0.74-0.96,1.17c-0.34,0.43-0.68,0.85-1.01,1.26c-0.33,0.41-0.63,0.78-0.9,1.12
			c-0.26,0.34-0.47,0.6-0.63,0.76c-0.53,0.6-1.16,1.2-1.88,1.82c-0.73,0.62-1.45,1.19-2.18,1.7c-0.73,0.51-1.39,0.93-2,1.25
			c-0.61,0.32-1.05,0.48-1.34,0.48c-0.65,0-1.28-0.11-1.88-0.32c-0.61-0.21-1.14-0.52-1.6-0.93c-0.46-0.41-0.83-0.91-1.11-1.5
			c-0.28-0.59-0.42-1.28-0.42-2.04c0-1.26,0.25-2.69,0.76-4.31c0.5-1.61,1.17-3.26,2-4.92c0.83-1.67,1.78-3.27,2.85-4.81
			c1.08-1.54,2.19-2.86,3.35-3.97c1.35-1.27,2.76-2.21,4.24-2.82c1.48-0.6,2.99-0.91,4.54-0.91c0.29,0,0.54,0.06,0.76,0.18
			c0.21,0.12,0.4,0.27,0.55,0.46c0.15,0.19,0.29,0.4,0.41,0.62c0.12,0.23,0.24,0.46,0.36,0.7c0.07,0.15,0.21,0.32,0.44,0.51
			c0.22,0.19,0.45,0.38,0.69,0.57c0.24,0.2,0.45,0.39,0.63,0.57c0.18,0.19,0.27,0.37,0.27,0.54c0,0.36-0.07,0.75-0.22,1.19
			c-0.15,0.43-0.3,0.94-0.47,1.5c-0.17,0.57-0.33,1.22-0.47,1.94c-0.15,0.72-0.22,1.55-0.22,2.49c0,0.61,0.06,1.31,0.17,2.09
			c0.11,0.78,0.28,1.53,0.51,2.23c0.23,0.71,0.52,1.3,0.88,1.77c0.36,0.48,0.78,0.71,1.25,0.71c0.58,0,1.16-0.17,1.74-0.5
			c0.58-0.33,1.25-0.79,2-1.39c1.67-1.33,3.26-2.78,4.76-4.36c1.5-1.58,3.04-3.15,4.61-4.72c0.27-0.27,0.53-0.41,0.77-0.41
			C222.14,45.57,222.34,45.88,222.34,46.49z M202.32,43.56c0-0.03-0.03-0.13-0.08-0.28c-0.05-0.15-0.13-0.31-0.23-0.47
			c-0.1-0.16-0.23-0.31-0.37-0.43c-0.15-0.13-0.3-0.19-0.47-0.19h-0.05c-0.63,0.07-1.31,0.28-2.02,0.62
			c-0.72,0.35-1.48,0.88-2.28,1.61c-0.8,0.72-1.65,1.65-2.53,2.79c-0.89,1.14-1.81,2.52-2.77,4.16c-0.29,0.49-0.61,1.03-0.96,1.62
			c-0.35,0.59-0.68,1.23-1,1.94c-0.32,0.71-0.58,1.46-0.79,2.26c-0.21,0.8-0.32,1.64-0.32,2.52c0,0.53,0.19,0.93,0.58,1.2
			c0.38,0.27,0.78,0.41,1.19,0.41c0.43,0,0.98-0.23,1.66-0.7c0.68-0.47,1.42-1.09,2.21-1.86c0.79-0.77,1.6-1.66,2.43-2.65
			c0.83-0.99,1.6-2.02,2.3-3.07c0.71-1.05,1.32-2.09,1.84-3.11c0.52-1.02,0.87-1.95,1.06-2.78c0.05-0.26,0.11-0.56,0.18-0.91
			c0.07-0.35,0.13-0.7,0.19-1.05c0.06-0.35,0.11-0.67,0.15-0.97C202.3,43.91,202.32,43.69,202.32,43.56z" class="svg-elem-12"></path>
	</defs>
	<clipPath id="SVGID_12_">
		<use xlink:href="#SVGID_11_" style="overflow:visible;"></use>
	</clipPath>
	<path class="st6 svg-elem-13" d="M204.82,42.02c0,0-2.59-5.05-9.32,0.59c-6.73,5.65-9.06,16.05-9.06,16.05s-1.29,8.32,4.92,4.46
		s12.16-20.51,12.16-20.51s-0.52,13.67,1.29,16.05c1.81,2.38,8.54-2.97,20.44-14.27"></path>
</g>
<g>
	<defs>
		<path id="SVGID_13_" d="M262.77,48.6c0,0.32-0.06,0.65-0.17,0.98c-0.11,0.33-0.25,0.66-0.41,0.99c-0.16,0.33-0.35,0.65-0.55,0.97
			c-0.2,0.31-0.4,0.62-0.59,0.91c-0.5,0.77-1.08,1.54-1.74,2.33c-0.67,0.79-1.38,1.56-2.14,2.31c-0.76,0.75-1.54,1.45-2.34,2.12
			c-0.8,0.66-1.59,1.25-2.36,1.76c-0.61,0.41-1.2,0.79-1.75,1.15c-0.55,0.36-1.11,0.66-1.68,0.92c-0.56,0.25-1.15,0.46-1.77,0.61
			c-0.61,0.15-1.29,0.23-2.02,0.23c-1.42,0-2.57-0.36-3.46-1.07c-0.44-0.36-0.83-0.82-1.16-1.39c-0.33-0.57-0.62-1.2-0.87-1.9
			c-0.25-0.7-0.46-1.44-0.64-2.22c-0.18-0.78-0.33-1.56-0.45-2.32c-0.15-0.95-0.3-1.81-0.44-2.56c-0.14-0.76-0.29-1.39-0.47-1.91
			c-0.18-0.52-0.4-0.92-0.65-1.2c-0.26-0.28-0.59-0.42-1-0.42c-0.32,0-0.63,0.03-0.92,0.1c-0.29,0.07-0.59,0.2-0.91,0.41
			c-0.32,0.2-0.66,0.49-1.04,0.87c-0.38,0.37-0.82,0.87-1.32,1.48c-0.5,0.61-1.08,1.36-1.73,2.24c-0.65,0.88-1.41,1.94-2.28,3.16
			c-0.43,0.6-0.93,1.25-1.51,1.96c-0.58,0.71-1.17,1.39-1.78,2.04c-0.61,0.65-1.2,1.22-1.78,1.71c-0.58,0.49-1.09,0.81-1.54,0.94
			c-1.5-0.32-2.25-2.18-2.25-5.58c0-0.9,0.1-2.27,0.31-4.11c0.1-0.83,0.22-1.7,0.36-2.61c0.14-0.91,0.31-1.82,0.51-2.73
			c0.2-0.91,0.44-1.79,0.7-2.65c0.26-0.86,0.58-1.65,0.93-2.38c0.17-0.34,0.35-0.61,0.54-0.8c0.19-0.2,0.38-0.34,0.58-0.43
			c0.2-0.09,0.4-0.15,0.61-0.18c0.21-0.03,0.43-0.04,0.65-0.04c0.27,0,0.52,0.19,0.73,0.56c0.21,0.37,0.32,0.89,0.32,1.56
			c0,0.41-0.03,0.79-0.1,1.15c-0.07,0.36-0.16,0.72-0.28,1.1c-0.12,0.37-0.25,0.78-0.38,1.21c-0.14,0.43-0.27,0.93-0.41,1.49
			c-0.1,0.46-0.22,0.97-0.35,1.53c-0.13,0.56-0.25,1.13-0.36,1.71c-0.11,0.58-0.2,1.14-0.28,1.7c-0.08,0.55-0.12,1.05-0.12,1.49
			c0,0.31,0.05,0.62,0.15,0.94c0.48-0.05,1.26-0.76,2.36-2.14c0.56-0.7,1.18-1.46,1.86-2.29c0.67-0.83,1.4-1.75,2.19-2.75
			c0.58-0.75,1.16-1.44,1.73-2.09c0.57-0.65,1.16-1.21,1.78-1.7c0.61-0.48,1.27-0.87,1.96-1.15c0.69-0.28,1.46-0.42,2.29-0.42
			c0.89,0,1.63,0.19,2.21,0.57c0.59,0.38,1.06,0.91,1.42,1.58c0.36,0.67,0.64,1.47,0.83,2.41c0.2,0.94,0.35,1.96,0.47,3.09
			c0.1,0.95,0.2,1.9,0.29,2.83c0.09,0.94,0.28,1.77,0.55,2.51c0.27,0.74,0.67,1.34,1.18,1.8c0.51,0.46,1.25,0.69,2.2,0.69
			c0.73,0,1.5-0.17,2.3-0.51c0.8-0.34,1.65-0.81,2.53-1.42c0.89-0.6,1.81-1.31,2.75-2.13c0.95-0.82,1.92-1.71,2.93-2.68
			c0.39-0.37,0.82-0.85,1.29-1.42c0.47-0.57,0.93-1.12,1.38-1.64c0.45-0.53,0.87-0.98,1.27-1.35c0.39-0.37,0.71-0.56,0.95-0.56
			c0.1,0,0.27,0.05,0.5,0.15C262.65,48.2,262.77,48.37,262.77,48.6z" class="svg-elem-14"></path>
	</defs>
	<clipPath id="SVGID_14_">
		<use xlink:href="#SVGID_13_" style="overflow:visible;"></use>
	</clipPath>
	<path class="st7 svg-elem-15" d="M223.71,38.75c0,0-4.4,19.02-1.29,22.59c5.69-2.68,10.35-13.97,11.9-14.57c1.55-0.59,4.14-0.3,6.47,5.05
		c0,7.13,0.78,9.81,6.21,9.51c5.43-0.3,17.85-14.57,17.85-14.57"></path>
</g>
<g>
	<defs>
		<path id="SVGID_15_" d="M295,57.76c0,0.1-0.04,0.26-0.12,0.48c-0.08,0.22-0.17,0.45-0.27,0.68c-0.1,0.23-0.21,0.45-0.32,0.66
			c-0.11,0.21-0.2,0.36-0.27,0.45c-0.67,0.97-1.36,1.86-2.07,2.68c-0.72,0.82-1.47,1.53-2.27,2.13c-0.79,0.6-1.64,1.07-2.53,1.4
			c-0.9,0.33-1.86,0.5-2.88,0.5c-0.41,0-0.84-0.09-1.29-0.28c-0.45-0.19-0.89-0.45-1.31-0.79c-0.42-0.34-0.82-0.74-1.19-1.2
			c-0.38-0.46-0.69-0.96-0.95-1.5c-0.31-0.65-0.58-1.39-0.81-2.23c-0.23-0.84-0.42-1.75-0.56-2.72c-0.15-0.97-0.25-1.98-0.32-3.05
			c-0.07-1.06-0.1-2.15-0.1-3.28c-2.13,3.96-4.9,7.48-8.3,10.56c-3.41,3.09-6.95,4.64-10.6,4.64c-1.01,0-1.78-0.54-2.3-1.61
			c-0.53-1.05-0.79-2.15-0.79-3.29c0-1.53,0.13-2.67,0.38-3.42c0.72-2.18,1.54-4.22,2.47-6.12c0.93-1.9,2.06-3.77,3.39-5.61
			c0.87-1.19,1.86-2.38,2.97-3.57c1.13-1.19,2.18-2.04,3.17-2.55c1.23-0.66,3-0.99,5.3-0.99c0.8,0,1.48,0.44,2.05,1.33
			c0.56,0.88,0.99,1.91,1.28,3.09c0.29,1.24,0.44,2.21,0.44,2.91c0.26-0.83,0.49-1.68,0.69-2.54c0.2-0.86,0.38-1.75,0.54-2.66
			c0.15-0.92,0.29-1.88,0.42-2.89c0.13-1.01,0.24-2.1,0.35-3.25c0.03-0.31,0.07-0.7,0.1-1.17c0.03-0.48,0.08-1.04,0.13-1.68
			c0.1-1.33,0.2-2.44,0.31-3.35c0.1-0.91,0.24-1.5,0.41-1.77c0.41-0.7,1.13-1.05,2.15-1.05c0.51,0,1.02,0.11,1.51,0.33
			c0.53,0.2,0.79,0.49,0.79,0.87c0,0.2-0.04,0.54-0.12,0.99c-0.08,0.46-0.18,1.05-0.32,1.79c-0.14,0.73-0.32,1.64-0.55,2.72
			c-0.23,1.08-0.48,2.37-0.76,3.86c-0.02,0.17-0.07,0.51-0.15,1.02c-0.09,0.51-0.18,1.05-0.28,1.62c-0.1,0.57-0.2,1.1-0.28,1.58
			c-0.09,0.48-0.14,0.79-0.15,0.91c-0.22,1.38-0.38,2.68-0.49,3.9c-0.1,1.22-0.15,2.46-0.15,3.7c0,4.34,0.35,7.57,1.06,9.72
			c0.71,2.14,1.62,3.21,2.73,3.21c0.65,0,1.27-0.1,1.87-0.29c0.6-0.2,1.19-0.49,1.78-0.88c0.59-0.39,1.19-0.88,1.81-1.47
			c0.61-0.59,1.26-1.27,1.95-2.05c0.39-0.44,0.75-0.83,1.08-1.17c0.32-0.34,0.63-0.51,0.92-0.51c0.19,0,0.31,0.14,0.37,0.42
			C294.97,57.21,295,57.49,295,57.76z M275.11,50.85c-0.44-0.1-0.78-0.32-1.01-0.66c-0.23-0.34-0.35-0.72-0.35-1.15
			c0-0.34,0.05-0.84,0.15-1.5c0.1-0.66,0.15-1.17,0.15-1.53c0-0.31-0.08-0.65-0.24-1.03c-0.16-0.38-0.37-0.74-0.63-1.07
			c-0.26-0.33-0.54-0.61-0.86-0.84c-0.32-0.23-0.63-0.34-0.93-0.34c-0.9,0-2.13,0.94-3.69,2.83c-0.79,0.97-1.51,1.9-2.16,2.78
			c-0.66,0.88-1.26,1.76-1.81,2.63c-0.6,0.94-1.11,1.79-1.52,2.58c-0.42,0.78-0.77,1.48-1.06,2.09c-1.01,2.16-1.51,3.86-1.51,5.1
			c0,1.58,0.54,2.37,1.61,2.37c0.96,0,2.27-0.55,3.94-1.66c1.72-1.17,3.06-2.23,3.99-3.16c0.97-1.02,1.78-1.88,2.43-2.58
			c0.65-0.7,1.16-1.26,1.54-1.68c0.38-0.42,0.72-0.9,1.04-1.43C274.51,52.06,274.82,51.48,275.11,50.85z" class="svg-elem-16"></path>
	</defs>
	<clipPath id="SVGID_16_">
		<use xlink:href="#SVGID_15_" style="overflow:visible;"></use>
	</clipPath>
	<path class="st8 svg-elem-17" d="M275.2,51.83c0,0,2.59-6.24-2.07-9.81s-13.46,11-13.46,11s-5.43,8.62-1.55,11c3.88,2.38,13.46-2.68,20.7-16.65
		c2.33-8.92,2.59-18.43,2.59-18.43v-3.57c0,0-3.36,26.16-1.55,33.29s6.21,9.81,16.3-3.27"></path>
</g>
</svg>
